<svg width="19" height="19" viewBox="0 0 19 19" fill="none" xmlns="http://www.w3.org/2000/svg">
<circle cx="9.5" cy="9.5" r="9.5" fill="#F50914"/>
<path d="M9.5 15C9.86467 15 10.2144 14.8551 10.4723 14.5973C10.7301 14.3394 10.875 13.9897 10.875 13.625H8.125C8.125 13.9897 8.26987 14.3394 8.52773 14.5973C8.78559 14.8551 9.13533 15 9.5 15ZM10.1841 4.75555C10.1937 4.65996 10.1831 4.56342 10.1531 4.47215C10.1231 4.38088 10.0743 4.29692 10.0098 4.22567C9.94538 4.15442 9.86671 4.09747 9.7789 4.0585C9.69108 4.01953 9.59607 3.99939 9.5 3.99939C9.40393 3.99939 9.30892 4.01953 9.2211 4.0585C9.13329 4.09747 9.05462 4.15442 8.99017 4.22567C8.92571 4.29692 8.87691 4.38088 8.8469 4.47215C8.81689 4.56342 8.80634 4.65996 8.81594 4.75555C8.03887 4.91361 7.3403 5.33536 6.83853 5.9494C6.33675 6.56343 6.0626 7.33201 6.0625 8.12499C6.0625 8.87987 5.71875 12.25 4.6875 12.9375H14.3125C13.2812 12.25 12.9375 8.87987 12.9375 8.12499C12.9375 6.46124 11.755 5.07249 10.1841 4.75555Z" fill="white"/>
</svg>
