<svg width="53" height="40" viewBox="0 0 53 40" fill="none" xmlns="http://www.w3.org/2000/svg">
<path d="M1.73924 32.0267H3.57088C4.58182 32.0267 5.19055 32.5865 5.19055 33.5268C5.19055 34.4888 4.61986 35.0324 3.61436 35.0324H1.73924V32.0267ZM1.73924 35.8965H3.61436L5.29382 39H6.44064L4.6253 35.7444C5.60906 35.4346 6.20149 34.5867 6.20149 33.4942C6.20149 32.0811 5.21229 31.1571 3.70133 31.1571H0.760919V39H1.73924V35.8965ZM9.52442 34.0703C10.4158 34.0703 11.0082 34.7443 11.03 35.69H7.95911C8.01889 34.7497 8.6385 34.0703 9.52442 34.0703ZM11.0082 37.3803C10.8506 37.913 10.3234 38.2771 9.60595 38.2771C8.58958 38.2771 7.95367 37.5651 7.95367 36.4835V36.4292H12.0083V36.0705C12.0083 34.3584 11.068 33.2496 9.54073 33.2496C7.98085 33.2496 6.98078 34.4399 6.98078 36.1955C6.98078 37.9728 7.96454 39.0978 9.58421 39.0978C10.818 39.0978 11.7746 38.3695 11.9376 37.3803H11.0082ZM12.9343 39H13.88V35.4563C13.88 34.6736 14.4235 34.0866 15.1736 34.0866C15.8747 34.0866 16.3313 34.5323 16.3313 35.2117V39H17.277V35.4074C17.277 34.641 17.8042 34.0866 18.5543 34.0866C19.2989 34.0866 19.7282 34.5432 19.7282 35.315V39H20.674V35.0976C20.674 33.9779 19.9511 33.2496 18.8314 33.2496C18.0379 33.2496 17.3748 33.6518 17.0596 34.3258H17.0378C16.7933 33.641 16.2226 33.2496 15.4508 33.2496C14.6899 33.2496 14.1137 33.6518 13.8474 34.2497H13.8257V33.3475H12.9343V39ZM21.8989 39H22.8446V33.3475H21.8989V39ZM22.3718 32.3963C22.6979 32.3963 22.9642 32.13 22.9642 31.8093C22.9642 31.4832 22.6979 31.2223 22.3718 31.2223C22.0511 31.2223 21.7848 31.4832 21.7848 31.8093C21.7848 32.13 22.0511 32.3963 22.3718 32.3963ZM24.0914 39H25.0371V35.6737C25.0371 34.7171 25.6186 34.0866 26.51 34.0866C27.3796 34.0866 27.809 34.5867 27.809 35.4998V39H28.7547V35.3313C28.7547 34.0486 28.0373 33.2496 26.7981 33.2496C25.923 33.2496 25.3197 33.641 25.0045 34.2497H24.9827V33.3475H24.0914V39ZM32.0722 39.0978C32.8875 39.0978 33.5343 38.6956 33.8984 38.0434H33.9147V39H34.8169V31.1571H33.8712V34.266H33.8495C33.5125 33.6464 32.8603 33.2496 32.0505 33.2496C30.6265 33.2496 29.6536 34.4019 29.6536 36.1737C29.6536 37.9456 30.6319 39.0978 32.0722 39.0978ZM32.2516 34.0812C33.2245 34.0812 33.8767 34.9128 33.8767 36.1737C33.8767 37.4401 33.2245 38.2663 32.2516 38.2663C31.2515 38.2663 30.621 37.4564 30.621 36.1737C30.621 34.8965 31.2515 34.0812 32.2516 34.0812ZM46.1914 39V31.1571H45.0554L42.3487 37.701H42.3053L39.5986 31.1571H38.4626V39H39.3757V32.9561H39.4138L41.9139 38.9456H42.7401L45.2402 32.9561H45.2783V39H46.1914ZM49.8024 34.0703C50.6937 34.0703 51.2862 34.7443 51.3079 35.69H48.2371C48.2968 34.7497 48.9165 34.0703 49.8024 34.0703ZM51.2862 37.3803C51.1286 37.913 50.6013 38.2771 49.8839 38.2771C48.8675 38.2771 48.2316 37.5651 48.2316 36.4835V36.4292H52.2862V36.0705C52.2862 34.3584 51.346 33.2496 49.8187 33.2496C48.2588 33.2496 47.2587 34.4399 47.2587 36.1955C47.2587 37.9728 48.2425 39.0978 49.8622 39.0978C51.0959 39.0978 52.0525 38.3695 52.2156 37.3803H51.2862Z" fill="white" fill-opacity="0.83"/>
<path d="M26 24C26.7956 24 27.5587 23.6839 28.1213 23.1213C28.6839 22.5587 29 21.7956 29 21H23C23 21.7956 23.3161 22.5587 23.8787 23.1213C24.4413 23.6839 25.2044 24 26 24ZM27.4925 1.64848C27.5134 1.43991 27.4904 1.22927 27.4249 1.03014C27.3595 0.831011 27.253 0.647816 27.1124 0.492368C26.9717 0.336921 26.8001 0.212673 26.6085 0.127638C26.4169 0.0426029 26.2096 -0.00133133 26 -0.00133133C25.7904 -0.00133133 25.5831 0.0426029 25.3915 0.127638C25.1999 0.212673 25.0283 0.336921 24.8876 0.492368C24.747 0.647816 24.6405 0.831011 24.5751 1.03014C24.5096 1.22927 24.4866 1.43991 24.5075 1.64848C22.8121 1.99333 21.2879 2.91352 20.1931 4.25323C19.0984 5.59294 18.5002 7.26984 18.5 8.99998C18.5 10.647 17.75 18 15.5 19.5H36.5C34.25 18 33.5 10.647 33.5 8.99998C33.5 5.36998 30.92 2.33998 27.4925 1.64848Z" fill="white"/>
</svg>

