<svg width="29" height="23" viewBox="0 0 29 23" fill="none" xmlns="http://www.w3.org/2000/svg">
<path d="M10.4525 21.3794L1.26149 12.2399C1.20849 12.1872 1.16642 12.1246 1.13772 12.0555C1.10901 11.9865 1.09424 11.9125 1.09424 11.8377C1.09424 11.763 1.10901 11.689 1.13772 11.62C1.16642 11.5509 1.20849 11.4883 1.26149 11.4356L3.5818 9.11266C3.80352 8.89094 4.16188 8.89094 4.3836 9.11266L10.4345 15.1274C10.6562 15.3491 11.0171 15.3466 11.2388 15.1248L24.609 1.62579C24.8307 1.40149 25.1916 1.40149 25.4159 1.62321L27.7388 3.9461C27.9606 4.16782 27.9606 4.52618 27.7414 4.7479L13.175 19.4458L13.1776 19.4484L11.2569 21.3794C11.0352 21.6011 10.6742 21.6011 10.4525 21.3794Z" fill="#E0E0E0" stroke="#E0E0E0" stroke-width="1.54688" stroke-miterlimit="10"/>
</svg>
