<svg width="23" height="23" viewBox="0 0 23 23" fill="none" xmlns="http://www.w3.org/2000/svg">
<path d="M2 7H0V21C0 22.1 0.9 23 2 23H16V21H2V7ZM18 3H6C4.9 3 4 3.9 4 5V17C4 18.1 4.9 19 6 19H18C19.1 19 20 18.1 20 17V5C20 3.9 19.1 3 18 3ZM18 17H6V5H18V17ZM10 6.5V15.5L16 11L10 6.5Z" fill="#8C8787"/>
<circle cx="18" cy="5" r="5" fill="#E50914"/>
<path d="M18.6486 8H19.5095V6.85889H20.3022V6.10615H19.5095V2.22236H18.2122C16.9109 4.1042 16.2543 5.14121 15.7578 6.07412V6.85889H18.6486V8ZM16.5946 6.09814C17.0551 5.26133 17.6396 4.36045 18.6406 2.91504H18.6566V6.11816H16.5946V6.09814Z" fill="white"/>
</svg>
