<svg width="24" height="45" viewBox="0 0 24 45" fill="none" xmlns="http://www.w3.org/2000/svg">
<path d="M12 22C17.5228 22 22 17.5228 22 12C22 6.47715 17.5228 2 12 2C6.47715 2 2 6.47715 2 12C2 17.5228 6.47715 22 12 22Z" stroke="white" stroke-width="2" stroke-linecap="round" stroke-linejoin="round"/>
<path d="M12 16V12" stroke="white" stroke-width="2" stroke-linecap="round" stroke-linejoin="round"/>
<path d="M12 8H12.01" stroke="white" stroke-width="2" stroke-linecap="round" stroke-linejoin="round"/>
<path d="M3.53521 40V30.3883H2.33624V40H3.53521ZM5.17962 40H6.33862V35.9235C6.33862 34.7512 7.05134 33.9785 8.14374 33.9785C9.20949 33.9785 9.7357 34.5913 9.7357 35.7104V40H10.8947V35.5039C10.8947 33.9319 10.0155 32.9527 8.49677 32.9527C7.42436 32.9527 6.68499 33.4323 6.29866 34.1783H6.27202V33.0726H5.17962V40ZM12.7056 40H13.8646V34.0251H15.2768V33.0726H13.858V32.3066C13.858 31.6205 14.1577 31.2875 14.7839 31.2875C14.977 31.2875 15.1702 31.3075 15.3101 31.3275V30.3883C15.1435 30.3616 14.8638 30.335 14.604 30.335C13.3251 30.335 12.7056 30.9678 12.7056 32.3V33.0726H11.7398V34.0251H12.7056V40ZM18.9727 40.1199C20.8844 40.1199 22.1767 38.7411 22.1767 36.5363C22.1767 34.3249 20.8844 32.9527 18.9727 32.9527C17.0544 32.9527 15.7622 34.3249 15.7622 36.5363C15.7622 38.7411 17.0544 40.1199 18.9727 40.1199ZM18.9727 39.1008C17.7471 39.1008 16.9412 38.1682 16.9412 36.5363C16.9412 34.9044 17.7471 33.9719 18.9727 33.9719C20.1984 33.9719 20.9977 34.9044 20.9977 36.5363C20.9977 38.1682 20.1984 39.1008 18.9727 39.1008Z" fill="white"/>
</svg>
