<svg width="41" height="45" viewBox="0 0 41 45" fill="none" xmlns="http://www.w3.org/2000/svg">
<path d="M20.2969 3.5625H21.7031C21.8281 3.5625 21.8906 3.625 21.8906 3.75V20.25C21.8906 20.375 21.8281 20.4375 21.7031 20.4375H20.2969C20.1719 20.4375 20.1094 20.375 20.1094 20.25V3.75C20.1094 3.625 20.1719 3.5625 20.2969 3.5625Z" fill="white"/>
<path d="M13.125 11.1094H28.875C29 11.1094 29.0625 11.1719 29.0625 11.2969V12.7031C29.0625 12.8281 29 12.8906 28.875 12.8906H13.125C13 12.8906 12.9375 12.8281 12.9375 12.7031V11.2969C12.9375 11.1719 13 11.1094 13.125 11.1094Z" fill="white"/>
<path d="M10.4378 40V30.3883H9.0457L5.72855 38.408H5.67527L2.35812 30.3883H0.965986V40H2.08502V32.593H2.13165L5.19568 39.9334H6.20814L9.27217 32.593H9.3188V40H10.4378ZM12.6551 42.5911C13.9073 42.5911 14.4802 42.1049 15.073 40.4862L17.7973 33.0726H16.5784L14.66 38.841H14.64L12.7217 33.0726H11.4828L14.0406 40.0067L13.8807 40.4929C13.6143 41.2989 13.2546 41.6119 12.6085 41.6119C12.4619 41.6119 12.2821 41.6053 12.1555 41.5786V42.5511C12.2821 42.5778 12.5152 42.5911 12.6551 42.5911ZM27.4474 38.9209H22.8113V30.3883H21.6124V40H27.4474V38.9209ZM28.6055 40H29.7645V33.0726H28.6055V40ZM29.185 31.907C29.5847 31.907 29.9111 31.5806 29.9111 31.1876C29.9111 30.7879 29.5847 30.4682 29.185 30.4682C28.792 30.4682 28.4656 30.7879 28.4656 31.1876C28.4656 31.5806 28.792 31.907 29.185 31.907ZM31.1691 34.9843C31.1691 35.9302 31.7686 36.5563 32.9876 36.8694L34.2065 37.1824C34.9859 37.3889 35.2723 37.6554 35.2723 38.1483C35.2723 38.7744 34.6928 39.174 33.7536 39.174C32.8144 39.174 32.2682 38.7877 32.1416 38.0683H30.9826C31.1025 39.2939 32.1616 40.1199 33.6803 40.1199C35.2989 40.1199 36.4379 39.2673 36.4379 38.0617C36.4379 37.0425 35.9317 36.5363 34.5329 36.1833L33.4605 35.9235C32.6745 35.7237 32.3082 35.404 32.3082 34.9244C32.3082 34.3182 32.8677 33.8986 33.7136 33.8986C34.5662 33.8986 35.1058 34.3116 35.1857 34.9777H36.2914C36.2381 33.8053 35.1857 32.9527 33.7536 32.9527C32.2282 32.9527 31.1691 33.7987 31.1691 34.9843ZM37.9758 31.4007V33.0726H36.9433V34.0251H37.9758V38.2015C37.9758 39.5337 38.4687 40.0533 39.7409 40.0533C40.014 40.0533 40.3338 40.0333 40.4736 40V39.0275C40.3937 39.0408 40.1273 39.0608 39.994 39.0608C39.4012 39.0608 39.1348 38.7744 39.1348 38.1416V34.0251H40.4803V33.0726H39.1348V31.4007H37.9758Z" fill="white"/>
</svg>