<svg width="12" height="12" viewBox="0 0 12 12" fill="none" xmlns="http://www.w3.org/2000/svg">
<path d="M4.3535 9.8535L9 5.207L6.793 3L2.1465 7.6465C2.08253 7.71055 2.03709 7.79072 2.015 7.8785L1.5 10.5L4.121 9.985C4.209 9.963 4.2895 9.9175 4.3535 9.8535ZM10.5 3.707C10.6875 3.51947 10.7928 3.26517 10.7928 3C10.7928 2.73484 10.6875 2.48053 10.5 2.293L9.707 1.5C9.51947 1.31253 9.26516 1.20721 9 1.20721C8.73484 1.20721 8.48053 1.31253 8.293 1.5L7.5 2.293L9.707 4.5L10.5 3.707Z" fill="white" fill-opacity="0.81"/>
</svg>
