<svg width="24" height="24" viewBox="0 0 24 24" fill="none" xmlns="http://www.w3.org/2000/svg">
<path d="M12 0.333328C5.56704 0.333328 0.333374 5.567 0.333374 12C0.333374 18.433 5.56704 23.6667 12 23.6667C18.433 23.6667 23.6667 18.433 23.6667 12C23.6667 5.567 18.433 0.333328 12 0.333328ZM12 21.3333C6.85387 21.3333 2.66671 17.1462 2.66671 12C2.66671 6.85383 6.85387 2.66666 12 2.66666C17.1462 2.66666 21.3334 6.85383 21.3334 12C21.3334 17.1462 17.1462 21.3333 12 21.3333Z" fill="white"/>
<path d="M8.5 17.8333L17.8333 12L8.5 6.16667V17.8333Z" fill="white"/>
</svg>
