<svg width="111" height="45" viewBox="0 0 111 45" fill="none" xmlns="http://www.w3.org/2000/svg">
<rect width="110.625" height="45" rx="5.625" fill="#C4C4C4"/>
<path d="M53.5873 15.5824V30H56.1651V25.2341H59.0826C62.0001 25.2341 64.0483 23.2858 64.0483 20.4083C64.0483 17.5307 62.06 15.5824 59.1925 15.5824H53.5873ZM56.1651 17.6906H58.5131C60.3615 17.6906 61.4305 18.6797 61.4305 20.4083C61.4305 22.1568 60.3515 23.1559 58.5031 23.1559H56.1651V17.6906ZM65.6956 30H68.1835V15.5824H65.6956V30ZM74.1071 28.2915C73.0281 28.2915 72.3087 27.7419 72.3087 26.8727C72.3087 26.0334 72.9981 25.4939 74.1971 25.4139L76.6449 25.2641V26.0734C76.6449 27.3523 75.5159 28.2915 74.1071 28.2915ZM73.3578 30.1699C74.7166 30.1699 76.0455 29.4605 76.6549 28.3115H76.7049V30H79.1028V22.7063C79.1028 20.5781 77.3943 19.1893 74.7666 19.1893C72.0689 19.1893 70.3803 20.6081 70.2704 22.5864H72.5784C72.7383 21.7071 73.4877 21.1376 74.6666 21.1376C75.8956 21.1376 76.6449 21.7771 76.6449 22.8861V23.6455L73.8474 23.8053C71.2696 23.9652 69.8208 25.0942 69.8208 26.9726C69.8208 28.881 71.3095 30.1699 73.3578 30.1699ZM82.1889 33.9366C84.6068 33.9366 85.7758 33.0474 86.6851 30.4196L90.5118 19.4091H87.894L85.3962 27.8818H85.3562L82.8583 19.4091H80.1407L83.9074 30.01C83.9174 30.04 83.7676 30.5695 83.7676 30.5995C83.4878 31.5786 82.9583 31.9683 81.9291 31.9683C81.7793 31.9683 81.3397 31.9583 81.2098 31.9283V33.8966C81.3397 33.9266 82.049 33.9366 82.1889 33.9366Z" fill="black"/>
<path d="M19 12V33.6L37 22.8L19 12Z" fill="black"/>
</svg>
