<svg width="27" height="37" viewBox="0 0 27 37" fill="none" xmlns="http://www.w3.org/2000/svg">
<path d="M0.385895 33.9475C0.478292 35.3335 1.63054 36.2357 3.29369 36.2357C5.09816 36.2357 6.22866 35.3389 6.22866 33.904C6.22866 32.779 5.57101 32.1539 3.94591 31.7463L3.1252 31.5289C2.05992 31.2517 1.62511 30.8984 1.62511 30.306C1.62511 29.5396 2.33167 29.0124 3.34804 29.0124C4.36985 29.0124 5.04924 29.5287 5.1362 30.3712H6.11453C6.07105 29.0559 4.94054 28.1319 3.38065 28.1319C1.75011 28.1319 0.608735 29.045 0.608735 30.3494C0.608735 31.4147 1.25008 32.0506 2.69583 32.4202L3.70133 32.6811C4.75574 32.9529 5.21773 33.3605 5.21773 34.0236C5.21773 34.7954 4.44594 35.3552 3.38609 35.3552C2.26645 35.3552 1.46205 34.7954 1.36965 33.9475H0.385895ZM7.24167 36.1053H8.18738V32.8116C8.18738 31.8332 8.76894 31.1919 9.70922 31.1919C10.5951 31.1919 11.0463 31.73 11.0463 32.6268V36.1053H11.992V32.4528C11.992 31.1919 11.2419 30.3549 10.0027 30.3549C9.14397 30.3549 8.52436 30.7245 8.20912 31.3549H8.18738V28.2624H7.24167V36.1053ZM15.0268 35.3987C14.3475 35.3987 13.8963 35.0454 13.8963 34.5073C13.8963 33.9747 14.3312 33.6377 15.0921 33.5888L16.603 33.4964V33.9584C16.603 34.7736 15.9182 35.3987 15.0268 35.3987ZM14.8149 36.2031C15.5758 36.2031 16.2932 35.7791 16.6302 35.1324H16.652V36.1053H17.5488V32.1974C17.5488 31.0723 16.7117 30.3549 15.3856 30.3549C14.0485 30.3549 13.2115 31.1049 13.1463 32.0833H14.0594C14.179 31.5289 14.6355 31.1865 15.3638 31.1865C16.1465 31.1865 16.603 31.5995 16.603 32.2898V32.7626L14.9834 32.855C13.6789 32.9311 12.9343 33.5399 12.9343 34.5073C12.9343 35.5237 13.6898 36.2031 14.8149 36.2031ZM18.7194 36.1053H19.6651V32.5833C19.6651 31.7843 20.1434 31.2571 20.8771 31.2571C21.1054 31.2571 21.3065 31.2843 21.3826 31.3115V30.3929C21.3065 30.3821 21.1652 30.3549 21.0021 30.3549C20.339 30.3549 19.8173 30.7516 19.6325 31.3767H19.6107V30.4527H18.7194V36.1053ZM24.1185 31.1756C25.0099 31.1756 25.6023 31.8495 25.6241 32.7953H22.5532C22.613 31.855 23.2326 31.1756 24.1185 31.1756ZM25.6023 34.4856C25.4447 35.0182 24.9175 35.3824 24.2001 35.3824C23.1837 35.3824 22.5478 34.6704 22.5478 33.5888V33.5344H26.6024V33.1757C26.6024 31.4636 25.6621 30.3549 24.1348 30.3549C22.575 30.3549 21.5749 31.5452 21.5749 33.3007C21.5749 35.078 22.5586 36.2031 24.1783 36.2031C25.4121 36.2031 26.3687 35.4748 26.5317 34.4856H25.6023Z" fill="white" fill-opacity="0.83"/>
<path d="M5 9C5 10.654 6.346 12 8 12C8.794 12 9.512 11.685 10.049 11.18L16.04 14.604C16.022 14.734 16 14.864 16 15C16 16.654 17.346 18 19 18C20.654 18 22 16.654 22 15C22 13.346 20.654 12 19 12C18.206 12 17.488 12.315 16.951 12.82L10.96 9.397C10.978 9.266 11 9.136 11 9C11 8.864 10.978 8.734 10.96 8.603L16.951 5.18C17.488 5.685 18.206 6 19 6C20.654 6 22 4.654 22 3C22 1.346 20.654 0 19 0C17.346 0 16 1.346 16 3C16 3.136 16.022 3.266 16.04 3.397L10.049 6.82C9.496 6.29468 8.76273 6.00123 8 6C6.346 6 5 7.346 5 9Z" fill="white"/>
</svg>
