<svg width="37" height="56" viewBox="0 0 37 56" fill="none" xmlns="http://www.w3.org/2000/svg">
<path d="M15.4167 18.5C15.4167 20.1958 16.8042 21.5833 18.5001 21.5833C20.1959 21.5833 21.5834 20.1958 21.5834 18.5C21.5834 16.8042 20.1959 15.4167 18.5001 15.4167C16.8042 15.4167 15.4167 16.8042 15.4167 18.5ZM6.16675 18.5C6.16675 20.1958 7.55425 21.5833 9.25008 21.5833C10.9459 21.5833 12.3334 20.1958 12.3334 18.5C12.3334 16.8042 10.9459 15.4167 9.25008 15.4167C7.55425 15.4167 6.16675 16.8042 6.16675 18.5ZM24.6667 18.5C24.6667 20.1958 26.0542 21.5833 27.7501 21.5833C29.4459 21.5833 30.8334 20.1958 30.8334 18.5C30.8334 16.8042 29.4459 15.4167 27.7501 15.4167C26.0542 15.4167 24.6667 16.8042 24.6667 18.5Z" fill="white"/>
<path d="M14.4652 46V35.6269H12.5962L9.24628 43.8147H9.18878L5.83171 35.6269H3.96986V46H5.43633V38.3657H5.48665L8.62088 45.9209H9.81418L12.9412 38.3657H12.9915V46H14.4652ZM19.1897 46.1438C21.3535 46.1438 22.7768 44.6557 22.7768 42.2188C22.7768 39.7891 21.3463 38.301 19.1897 38.301C17.0331 38.301 15.6026 39.7891 15.6026 42.2188C15.6026 44.6557 17.0259 46.1438 19.1897 46.1438ZM19.1897 44.8642C17.9748 44.8642 17.1841 43.9009 17.1841 42.2188C17.1841 40.5439 17.9748 39.5806 19.1897 39.5806C20.4046 39.5806 21.1953 40.5439 21.1953 42.2188C21.1953 43.9009 20.4118 44.8642 19.1897 44.8642ZM23.7273 46H25.28V41.4712C25.28 40.4001 25.8982 39.7316 26.8975 39.7316C27.1994 39.7316 27.4725 39.7675 27.5948 39.8178V38.3729C27.4797 38.3513 27.2856 38.3154 27.0628 38.3154C26.1714 38.3154 25.4957 38.8402 25.2441 39.7244H25.2081V38.4376H23.7273V46ZM31.1403 39.5518C32.2258 39.5518 32.959 40.3642 32.995 41.5215H29.2138C29.2929 40.3785 30.0549 39.5518 31.1403 39.5518ZM32.9878 43.7787C32.7793 44.4401 32.1252 44.8858 31.241 44.8858C29.9973 44.8858 29.2066 44.016 29.2066 42.7004V42.607H34.5477V42.075C34.5477 39.7819 33.2394 38.301 31.1403 38.301C29.0053 38.301 27.6395 39.8825 27.6395 42.2547C27.6395 44.6414 28.9838 46.1438 31.205 46.1438C32.9375 46.1438 34.2458 45.1589 34.4615 43.7787H32.9878Z" fill="white"/>
</svg>
